<?xml version="1.0" encoding="utf-8"?>
<!-- Generator: Adobe Illustrator 17.0.1, SVG Export Plug-In . SVG Version: 6.00 Build 0)  -->
<!DOCTYPE svg PUBLIC "-//W3C//DTD SVG 1.1//EN" "http://www.w3.org/Graphics/SVG/1.1/DTD/svg11.dtd">
<svg version="1.1" id="Layer_1" xmlns="http://www.w3.org/2000/svg" xmlns:xlink="http://www.w3.org/1999/xlink" x="0px" y="0px"
	 width="300px" height="782.858px" viewBox="0 0 300 782.858" enable-background="new 0 0 300 782.858" xml:space="preserve">
<path d="M296.457,456.928c-1.704-2.555-6.247-7.666-7.193-13.961c-0.284-7.099-6.531-18.74-6.531-18.74
	c-2.272-3.975-3.123-5.395-2.839-13.061c0.568-4.543-0.284-9.749-0.284-9.749c-0.284-7.383-0.284-6.247,0.852-28.868
	c5.963-80.734-7.951-71.27-10.506-90.862c-3.975-20.16-1.421-38.9-4.828-46.851c-4.827-15.333-2.274-28.394-2.274-28.394
	c2.272-46.188-42.595-63.036-42.595-63.036s-13.921,1.135-15.625-0.853c-4.827-5.111-27.275-18.174-28.978-19.877
	c-0.284-3.123-0.222-15.431-0.222-15.431c0-19.497,5.046-12.499,11.936-26.129c5.754-19.308-1.909-21.024-1.341-26.135
	c0.568-8.518,5.986-17.628-13.322-30.689c-8.221-6.76-16.137-9.058-23.709-9.065c-7.572,0.007-14.484,2.305-22.706,9.065
	c-19.308,13.061-13.388,22.171-12.82,30.689c0.568,5.111-6.845,6.826-1.09,26.135c6.89,13.629,12.061,6.631,12.061,26.129
	c0,0,0.125,12.307-0.159,15.431c-1.704,1.704-24.12,14.767-28.947,19.877c-1.704,1.988-15.609,0.853-15.609,0.853
	s-44.859,16.848-42.588,63.036c0,0,2.557,13.062-2.27,28.394c-3.407,7.95-0.851,26.691-4.826,46.851
	c-2.555,19.592-16.468,10.127-10.505,90.862c1.136,22.621,1.136,21.485,0.852,28.867c0,0-0.852,5.206-0.284,9.749
	c0.284,7.666-0.568,9.086-2.839,13.061c0,0-6.247,11.642-6.531,18.74c-0.946,6.294-5.49,11.405-7.193,13.961
	c0,0-4.969,6.247-3.407,8.234c1.562,1.988,9.086-10.08,9.086-10.08s2.697-4.117,4.117-6.105c1.42-1.988,5.963-2.697,4.401,3.407
	l-6.815,22.668c0,0-0.71,1.846,1.136,2.981s8.234-13.913,8.092-14.055s2.13-7.666,2.13-7.666s4.543-5.537,3.407,2.414
	c-1.136,7.95-2.981,25.318-2.981,25.318s1.562,4.685,5.963,0.852c-0.994-8.376,3.123-24.419,3.549-25.839
	c0.852-4.969,5.679-5.679,6.957-1.42c2.839,8.66,2.414,12.777,2.272,16.753c-1.136,6.105,6.247,13.345,6.673-0.71
	c0,0-3.265-25.697-2.697-29.956c0.568-4.259,2.13-11.5,9.796-3.975c4.969,1.704,4.827,4.259,6.389,5.821
	c2.13,4.543,12.21,7.808,5.537-3.833c-2.13-6.673-4.401-6.531-9.37-11.358c-4.117-9.228-14.197-13.771-13.913-25.981
	c0.284-12.21,1.388-19.955,10.474-39.263c9.338-24.104,8.581-24.482,7.824-65.37c0.801-9.411,3.029-13.629,3.407-25.366
	c0.379-5.679,10.979-23.473,10.979-41.266s4.164-9.843,3.786-4.164c1.893,31.044,12.872,24.23,12.872,62.467
	c-0.19,12.36-3.407,22.652-3.407,40.383c-0.126,5.521-6.373,10.632-6.373,25.965c0,0-5.111,29.151-1.988,90.294
	c2.745,45.147,20.917,86.035,23.189,114.429c-0.568,19.876,3.407,21.58,2.839,30.098c-0.568,10.222-11.358,31.802,3.975,84.047
	c0,0,12.493,44.863,14.197,49.974c1.704,5.111-4.543,8.518,1.704,17.037c1.134,7.041-5.679,11.358-6.247,12.493
	c-0.568,1.136-2.839,5.502-11.358,6.07c-4.196,1.107-5.111,6.774-5.111,7.774c0,2,41.834,0,41.834,0s3.597-1.148,3.029-1.716
	c-0.568-0.568,1.136-5.212-0.568-15.434c0,0-1.704-7.433-1.704-12.544s2.272-9.111,0.568-20.469
	c-1.134-15.871-8.488-40.807,2.214-63.488c10.702,22.682,3.348,47.634,2.214,63.505c-1.704,11.358,0.568,15.383,0.568,20.494
	s-1.704,12.59-1.704,12.59c-1.704,10.222,0,14.778-0.568,15.346s3.029,1.717,3.029,1.717s41.834,2,41.834,0
	c0-1-0.915-6.667-5.111-7.774c-8.518-0.568-10.79-5.023-11.358-6.158c-0.568-1.136-7.381-5.408-6.247-12.449
	c6.247-8.518,0-11.904,1.704-17.015c1.704-5.111,14.197-49.963,14.197-49.963c15.333-52.245,4.543-73.82,3.975-84.042
	c-0.568-8.518,3.407-10.219,2.839-30.095c2.272-28.394,20.444-69.281,23.189-114.428c3.123-61.142-1.988-90.293-1.988-90.293
	c0-15.333-6.247-20.444-6.373-25.965c0-17.731-3.217-28.022-3.407-40.383c0-38.238,10.979-31.423,12.872-62.467
	c-0.379-5.679,3.786-13.629,3.786,4.165s10.601,35.587,10.979,41.266c0.379,11.736,2.607,15.954,3.407,25.366
	c-0.757,40.888-1.514,41.266,7.824,65.37c9.086,19.308,10.19,27.053,10.474,39.263s-9.796,16.753-13.913,25.981
	c-4.969,4.827-7.241,4.685-9.37,11.358c-6.673,11.642,3.407,8.376,5.537,3.833c1.562-1.562,1.42-4.117,6.389-5.821
	c7.666-7.525,9.228-0.284,9.796,3.975c0.568,4.259-2.697,29.956-2.697,29.956c0.426,14.055,7.808,6.815,6.673,0.71
	c-0.142-3.975-0.568-8.092,2.272-16.753c1.278-4.259,6.105-3.549,6.957,1.42c0.426,1.42,4.543,17.462,3.549,25.839
	c4.401,3.833,5.963-0.852,5.963-0.852s-1.846-17.368-2.981-25.318c-1.136-7.95,3.407-2.414,3.407-2.414s2.272,7.524,2.13,7.666
	s6.247,15.191,8.092,14.055c1.846-1.136,1.136-2.981,1.136-2.981l-6.815-22.668c-1.562-6.105,2.981-5.395,4.401-3.407
	c1.42,1.988,4.117,6.105,4.117,6.105s7.524,12.068,9.086,10.08C301.426,463.175,296.457,456.928,296.457,456.928z M150,649.829
	c-0.59-12.679-3.359-33.211-3.35-33.361c0,0,1.704-30.104,2.272-39.758c2.839-20.444-1.666-74.396-1.666-86.889
	c0,0-1.288-3.978,1.741-9.657c3.029,5.679,2.745,9.657,2.745,9.657c0,12.493-3.502,66.446-0.663,86.889
	c0.568,9.654,2.272,39.758,2.272,39.758C153.359,616.618,150.59,637.149,150,649.829z"/>
</svg>
